<?xml version="1.0" encoding="UTF-8" standalone="no"?>
<!-- Created with Inkscape (http://www.inkscape.org/) -->

<svg
   xmlns:dc="http://purl.org/dc/elements/1.1/"
   xmlns:cc="http://creativecommons.org/ns#"
   xmlns:rdf="http://www.w3.org/1999/02/22-rdf-syntax-ns#"
   xmlns:svg="http://www.w3.org/2000/svg"
   xmlns="http://www.w3.org/2000/svg"
   xmlns:sodipodi="http://sodipodi.sourceforge.net/DTD/sodipodi-0.dtd"
   xmlns:inkscape="http://www.inkscape.org/namespaces/inkscape"
   width="144"
   height="144"
   viewBox="0 0 38.099999 38.100001"
   version="1.1"
   id="svg8"
   inkscape:version="0.92.4 (5da689c313, 2019-01-14)"
   sodipodi:docname="fir-skirt.svg">
  <defs
     id="defs2" />
  <sodipodi:namedview
     id="base"
     pagecolor="#ffffff"
     bordercolor="#666666"
     borderopacity="1.0"
     inkscape:pageopacity="0.0"
     inkscape:pageshadow="2"
     inkscape:zoom="1"
     inkscape:cx="77.130025"
     inkscape:cy="129.48223"
     inkscape:document-units="px"
     inkscape:current-layer="layer1"
     showgrid="false"
     inkscape:snap-global="false"
     units="px"
     inkscape:window-width="1920"
     inkscape:window-height="1149"
     inkscape:window-x="0"
     inkscape:window-y="0"
     inkscape:window-maximized="1" />
  <metadata
     id="metadata5">
    <rdf:RDF>
      <cc:Work
         rdf:about="">
        <dc:format>image/svg+xml</dc:format>
        <dc:type
           rdf:resource="http://purl.org/dc/dcmitype/StillImage" />
        <dc:title></dc:title>
      </cc:Work>
    </rdf:RDF>
  </metadata>
  <g
     inkscape:label="Layer 1"
     inkscape:groupmode="layer"
     id="layer1"
     transform="translate(0,-258.89998)">
    <path
       style="opacity:1;vector-effect:none;fill:#7a3616;fill-opacity:1;stroke:#492207;stroke-width:0.26458332px;stroke-linecap:butt;stroke-linejoin:miter;stroke-miterlimit:4;stroke-dasharray:none;stroke-dashoffset:0;stroke-opacity:1"
       d="m 22.357291,288.03723 c 0.0055,0.2508 -0.04729,0.40552 -0.03474,0.73499 0.0048,1.56296 -3.9e-5,3.12598 0.0017,4.68897 -0.08251,0.3691 0.01598,0.75132 -0.06668,1.11906 7.64e-4,0.32139 0.0022,0.64288 5.36e-4,0.96444 -0.303224,0.0665 -0.635931,0.0428 -0.946288,-0.002 -0.549738,-0.1055 -1.090543,-0.25589 -1.649697,-0.3062 -0.584514,-0.10072 -1.180001,-0.039 -1.769643,-0.0559 -0.310203,0.23802 -0.458363,-0.15134 -0.363832,-0.40998 0.01823,-0.40702 -0.02142,-0.8082 -0.03099,-1.21157 -0.0047,-1.99492 -7.15e-4,-3.9901 -0.0021,-5.98512 0.444654,-0.004 0.892909,-0.01 1.331304,0.0697 0.461026,0.0598 0.906918,0.22263 1.37685,0.2258 0.334016,-0.0217 0.617763,0.15504 0.95562,0.10191 0.40127,-0.004 0.802352,0.0187 1.197934,0.0656 z"
       id="path1606"
       inkscape:connector-curvature="0" />
    <path
       style="opacity:1;vector-effect:none;fill:none;fill-opacity:1;stroke:#492207;stroke-width:0.26458332px;stroke-linecap:butt;stroke-linejoin:miter;stroke-miterlimit:4;stroke-dasharray:none;stroke-dashoffset:0;stroke-opacity:1"
       d="m 21.034375,289.75702 c 0.02923,0.36793 -0.150393,0.71213 -0.156606,1.07903 -0.01974,0.39568 0.0067,0.79249 -0.04393,1.1868 -6.16e-4,0.39307 0.04035,0.78845 -0.100936,1.161 -0.01,0.0597 0.0065,0.11844 0.0038,0.17801"
       id="path1608"
       inkscape:connector-curvature="0" />
    <path
       style="opacity:1;vector-effect:none;fill:none;fill-opacity:1;stroke:#492207;stroke-width:0.26458332px;stroke-linecap:butt;stroke-linejoin:miter;stroke-miterlimit:4;stroke-dasharray:none;stroke-dashoffset:0;stroke-opacity:1"
       d="m 18.884635,290.05468 c 0.02406,0.42341 -0.162518,0.81951 -0.09898,1.24916 0.0141,0.46177 -0.04756,0.91957 -0.06883,1.3795 -0.05703,0.46328 -0.01911,0.93767 -0.03062,1.40597 -0.04628,0.009 -0.03364,0.07 -0.03307,0.0993"
       id="path1610"
       inkscape:connector-curvature="0" />
    <path
       style="opacity:1;vector-effect:none;fill:none;fill-opacity:1;stroke:#492207;stroke-width:0.26458332px;stroke-linecap:butt;stroke-linejoin:miter;stroke-miterlimit:4;stroke-dasharray:none;stroke-dashoffset:0;stroke-opacity:1"
       d="m 19.84375,289.62473 c -6.3e-5,0.51814 8.6e-5,1.03629 0,1.55443 -0.06034,0.37656 -0.09407,0.75313 -0.16535,1.12447"
       id="path1612"
       inkscape:connector-curvature="0" />
    <path
       style="fill:#38773b;fill-opacity:1;stroke:none;stroke-width:0.26458332px;stroke-linecap:butt;stroke-linejoin:miter;stroke-opacity:1"
       d="m 19.876823,261.5789 c 0.95344,-0.29039 -0.462061,1.35601 0.661452,0.59538 0.781333,-0.60024 -0.241258,1.00156 0.42994,0.82686 0.951924,-0.20061 1.290065,0.46493 0.793742,1.18963 0.03003,0.42638 0.720112,0.0889 0.496075,0.65766 0.126178,0.6505 -0.525001,1.65034 -0.09922,2.02215 0.378374,-0.61604 0.397517,-0.5426 0.363797,0.0992 -0.100274,0.93931 0.49593,1.29155 0.72761,0.19844 -0.0012,0.86645 -0.0858,1.81483 0.463019,2.54667 0.43919,-0.67473 0.207764,0.4265 0.326596,0.82694 -0.114329,0.69309 0.540961,0.60028 0.400974,-0.0331 0.271839,0.44704 -0.01751,2.08244 0.579932,1.81113 0.220688,-0.9333 0.267373,0.98402 0.544553,1.23156 0.06957,0.83438 0.457301,0.0736 0.52917,1.05829 0.004,0.73099 -0.02671,0.72026 0.640973,0.39924 0.182938,0.6699 -0.05468,1.39491 -0.357249,2.01958 -0.2862,0.46117 -0.704703,1.58674 0.140293,0.6958 0.620661,-0.53631 0.701861,0.18773 0.634322,0.65569 -0.05681,0.56696 -0.426484,1.47179 0.396871,0.85995 0.756406,0.16041 -0.474878,1.93522 0.396869,1.48829 0.3204,-1.02628 0.954326,-0.21556 0.529173,0.46299 -0.317945,0.74934 0.314544,-0.28206 0.13229,0.59075 0.02397,0.71091 -0.100648,1.40952 -0.06615,2.1213 0.324916,-0.006 0.502365,-0.61484 0.429942,0.0661 0.199506,0.41159 0.02319,1.52013 0.3638,1.55446 0.03716,0.66934 -0.07625,1.36894 0.06614,2.01738 0.314497,-0.71611 0.62352,0.335 -0.129517,0.0332 -1.734066,-0.0306 -3.487247,0.13504 -5.189499,-0.28847 -0.579729,-0.0885 -1.095741,-0.27252 -1.689658,-0.17458 h -5.92285 c -0.778617,0.36307 -1.853934,0.36962 -2.573785,0.43025 -1.055839,-4.8e-4 -2.121017,-1.6e-4 -3.180906,-2.5e-4 -0.08406,-0.37922 0.01061,-0.93861 -0.06614,-1.25677 0.35275,0.073 0.573252,-1.751 0.561262,-1.58142 -0.05119,0.37444 0.06417,1.26628 0.223677,0.34178 0.261384,-0.55834 -0.287522,-1.57832 -0.547667,-0.51483 -0.228828,0.47756 -0.857401,1.79199 -0.534943,0.53079 0.0065,-0.75193 -0.09042,-1.54107 0.324583,-2.20002 0.349556,1.14822 0.696315,-0.17979 0.715053,-0.73962 0.145268,-1.51065 0.03343,1.22385 0.548969,1.20627 0.256484,-0.93772 0.136971,-1.92979 0.164255,-2.8968 0.02421,0.50912 -0.12365,1.08268 0.297654,1.45524 0.14113,-0.56427 0.03085,-1.23273 0.06615,-1.84086 -0.02056,-0.99436 0.04189,-2.00219 -0.03307,-2.98772 -0.139345,0.50298 0.258244,1.62429 0.415049,0.52953 0.101786,-0.41349 0.357259,-2.16609 0.341272,-0.87843 0.189609,0.82561 0.06744,-0.63311 0.103556,-0.87551 -0.04988,-0.47877 -0.348891,-2.11556 -0.871443,-1.86528 0.03652,0.77653 0.949968,2.37247 1.830588,1.76688 0.421123,-0.53874 0.01266,-2.41867 -0.3638,-2.15163 -0.173181,0.57223 0.957588,1.82459 0.562234,0.56401 -0.235453,-0.65731 -0.923346,-2.08145 -0.926035,-2.28205 0.273632,0.54709 1.395915,1.35678 0.859896,0.23151 -0.184118,-0.60529 -1.030585,-1.91266 0.05098,-1.1327 0.947996,0.70078 0.25297,-1.06734 0.445103,-0.85169 0.283393,0.61572 1.150649,0.62207 0.595309,-0.13227 -0.380257,-0.3011 -0.800299,-1.16023 -0.19938,-1.38877 0.700758,0.58624 0.982169,-0.36217 0.960063,-1.02532 -0.08293,0.65008 0.319134,1.3978 0.340548,0.37107 0.02662,-0.35409 0.216664,-2.03266 0.221702,-1.59475 0.07044,0.0332 0.01523,-0.6763 0.03307,-0.91673 0.0029,-0.3534 -0.0037,-0.82317 0,-1.10075 0.309594,0.50565 0.184971,1.6268 0.850794,1.96037 0.10368,-0.46822 -1.053851,-1.90936 -0.189277,-1.39772 0.729108,0.25713 0.437235,-0.75745 0.496038,-1.19095 -0.123742,-0.41882 -0.489702,-1.39994 0.231521,-0.66154 0.684412,0.37785 0.354274,-0.65293 0.429957,-1.02528 -0.085,-0.64514 0.185549,0.29371 0.1323,-0.46306 0.04124,0.012 0.670351,-0.92891 0.670351,-0.92891 0,0 0.835484,1.01173 0.421122,0.96151 z"
       id="path1565"
       inkscape:connector-curvature="0"
       sodipodi:nodetypes="ccccccccccccccccccccccccccccccccccccccccccccccccccccccccccccccccccccccc" />
    <path
       style="fill:#dd59da;fill-opacity:1;stroke:#44156e;stroke-width:0.26458332px;stroke-linecap:butt;stroke-linejoin:miter;stroke-opacity:1"
       d="m 11.476302,282.44791 c 0.992294,0.27 1.932615,0.60729 2.991362,0.7973 1.005935,0.10096 1.926848,0.32242 2.872319,0.3938 1.569143,0.0111 3.130144,0.014 4.65353,-0.2976 1.014983,-0.0847 1.991519,-0.27746 2.976571,-0.4963 0.925413,-0.33295 1.939028,-0.25439 2.844277,-0.6284 0.402861,-0.0308 0.810823,-0.37522 1.240248,-0.29631 0.471189,0.28065 1.219148,0.99278 1.637122,1.38743 0.765488,0.57761 1.551502,1.13585 2.381248,1.65351 0.989855,0.61094 2.051146,1.15797 2.844277,2.01716 0.296989,0.27158 0.686592,0.26324 0.992177,0.46327 -0.424213,0.22675 -1.053742,0.16915 -1.55445,0.2316 -0.256876,0.57892 0.202474,1.16264 0.263351,1.72695 -0.403281,-0.0269 -1.308108,-0.73583 -1.288638,0.0917 -0.19899,0.42601 0.264444,1.65983 -0.562237,1.32299 -0.471946,-0.17416 -0.940195,-1.80607 -1.190629,-0.52909 -0.255765,0.65584 -0.746389,1.68515 -1.056376,0.44545 -0.456018,-0.36685 -0.903528,-2.48367 -0.994154,-0.84231 -0.241103,0.66324 -0.711815,2.55734 -1.488277,1.19056 -0.365638,-0.67624 -1.233949,-2.23138 -1.667569,-0.65984 -0.367856,0.65901 -1.303529,2.45769 -1.672802,0.79199 -0.300597,-0.72901 -0.877705,-2.58396 -1.389062,-0.85982 -0.06545,1.0591 -1.231939,1.73075 -1.33808,0.87107 -0.585659,-0.26237 -0.588103,-2.02654 -1.30774,-0.87093 -0.513808,0.39817 -1.831922,1.95434 -1.620575,0.33074 -0.292441,-0.84365 -1.080642,1.87448 -1.355996,0.29757 -0.271433,-1.17082 -1.110891,-0.25901 -1.677522,0.25716 -0.9687,0.79604 -0.52345,-0.49056 -0.802953,-0.95167 -0.426024,-1.05012 -1.371921,0.81782 -2.144626,0.62664 -0.506736,0.11919 -2.00535,0.57099 -1.625688,-0.46133 -0.07642,-0.36621 0.161767,-1.01726 -0.137163,-1.19066 -1.01148,0.46778 -1.858079,1.42131 -2.9781728,1.77216 -0.7238315,0.39949 -1.02411,0.28728 -0.7872638,-0.49695 0.1043918,-0.41394 -0.2004768,-0.70077 -0.198438,-1.07673 -0.024283,-0.46958 -0.7709991,-0.1261 -1.1071011,-0.23149 -1.0469229,0.0393 -2.1033749,-0.093 -3.0600871,-0.49609 0.6041685,-0.14167 0.9505886,-0.95921 0.1984374,-0.92596 -0.2547374,-0.4138 -0.079365,-0.86652 0.4299486,-0.8928 0.6020205,-0.1006 1.0808544,-0.41593 0.1984382,-0.6283 -0.5058551,-0.49408 -1.1885426,-0.99641 -1.78594,-1.15751 0.6052443,-0.16775 1.6338183,-0.61018 1.5469697,-0.59269 0.5494858,-0.20871 1.0158839,-0.35728 1.7933974,-0.69731 0.6788039,-0.2679 1.419587,-0.30483 2.0835977,-0.5626 0.6472054,-0.0735 1.1445924,-0.4943 1.7859478,-0.5955 0.342179,-0.086 0.711497,-0.34349 1.058321,-0.23084 z"
       id="path1567"
       inkscape:connector-curvature="0" />
    <path
       style="opacity:1;vector-effect:none;fill:none;fill-opacity:1;stroke:#44156e;stroke-width:0.26458332px;stroke-linecap:butt;stroke-linejoin:miter;stroke-miterlimit:4;stroke-dasharray:none;stroke-dashoffset:0;stroke-opacity:1"
       d="m 32.312239,287.90494 c -0.868574,-0.17251 -1.433359,-0.88202 -1.998381,-1.49287 -0.899129,-0.73568 -1.656641,-1.64896 -2.664894,-2.24393"
       id="path1570"
       inkscape:connector-curvature="0" />
    <path
       style="opacity:1;vector-effect:none;fill:none;fill-opacity:1;stroke:#44156e;stroke-width:0.26458332px;stroke-linecap:butt;stroke-linejoin:miter;stroke-miterlimit:4;stroke-dasharray:none;stroke-dashoffset:0;stroke-opacity:1"
       d="m 26.65677,288.26874 c -0.660689,-1.0274 -0.894862,-2.24608 -1.432111,-3.32587 -0.08759,-0.0897 -0.09424,-0.22573 -0.188448,-0.31164"
       id="path1572"
       inkscape:connector-curvature="0" />
    <path
       style="opacity:1;vector-effect:none;fill:none;fill-opacity:1;stroke:#44156e;stroke-width:0.26458332px;stroke-linecap:butt;stroke-linejoin:miter;stroke-miterlimit:4;stroke-dasharray:none;stroke-dashoffset:0;stroke-opacity:1"
       d="m 21.894271,288.86406 c -0.03871,-1.08206 -0.08638,-2.16323 -0.06614,-3.24708 -0.03914,-0.26136 0.08145,-0.60713 -0.06614,-0.8209"
       id="path1574"
       inkscape:connector-curvature="0" />
    <path
       style="opacity:1;vector-effect:none;fill:none;fill-opacity:1;stroke:#44156e;stroke-width:0.26458332px;stroke-linecap:butt;stroke-linejoin:miter;stroke-miterlimit:4;stroke-dasharray:none;stroke-dashoffset:0;stroke-opacity:1"
       d="m 16.205729,288.50025 c 0.115944,-0.9193 0.299086,-1.82986 0.61398,-2.71612 0.107223,-0.27297 0.03362,-0.61985 0.27901,-0.82235"
       id="path1576"
       inkscape:connector-curvature="0" />
    <path
       style="opacity:1;vector-effect:none;fill:none;fill-opacity:1;stroke:#44156e;stroke-width:0.26458332px;stroke-linecap:butt;stroke-linejoin:miter;stroke-miterlimit:4;stroke-dasharray:none;stroke-dashoffset:0;stroke-opacity:1"
       d="m 9.095052,287.07812 c 1.08528,-0.37777 1.90152,-1.24653 2.903112,-1.78565 0.386689,-0.23143 0.692104,-0.55922 1.098753,-0.76062"
       id="path1578"
       inkscape:connector-curvature="0" />
  </g>
</svg>
